<?xml version="1.0" encoding="utf-8"?>
<!-- Generator: Adobe Illustrator 21.0.0, SVG Export Plug-In . SVG Version: 6.00 Build 0)  -->
<svg version="1.1" id="Capa_1" xmlns="http://www.w3.org/2000/svg" xmlns:xlink="http://www.w3.org/1999/xlink" x="0px" y="0px"
	 viewBox="0 0 185.2 37.6" style="enable-background:new 0 0 185.2 37.6;" xml:space="preserve">
<style type="text/css">
	.st0{fill:#EE3235;}
	.st1{fill:#FFFFFF;}
	.st2{fill:#ED1C24;}
</style>
<g>
	<g>
		<polygon class="st0" points="185.2,25.6 93.4,25.6 83.2,13.1 93.4,0.6 185.2,0.6 		"/>
		<g>
			<polygon class="st1" points="119.2,4.7 119.2,21.5 113.3,21.5 113.6,14.2 110.5,21.5 106.6,21.5 105.5,14.1 103.6,21.4 
				97.6,21.4 102.5,4.7 108.8,4.7 109.8,11.5 112.6,4.7 			"/>
			<polygon class="st1" points="151.8,10 149.2,9.9 147.9,21.4 141.5,21.4 143,9.9 140.6,10 136.5,4.7 152.4,4.7 			"/>
			<path class="st1" d="M159.9,4.7l-1.2,10.4c0,0.6,0.3,1.3,0.8,1.5c0.6,0.2,1.3,0.1,1.8-0.3c0.4-0.4,0.5-0.8,0.7-1.3l1.4-10.3h6
				l-1.3,11.4c-0.3,1.6-1.1,3.2-2.5,4.2c-2.1,1.5-4.9,1.8-7.6,1.4c-2.1-0.4-4.6-1.8-5.3-4c-0.3-0.8-0.3-1.8-0.3-2.6l1.3-10.5
				L159.9,4.7L159.9,4.7z"/>
			<polygon class="st1" points="176,16.2 181,16.2 179.6,21.4 168.9,21.4 171.2,4.7 177.5,4.7 			"/>
			<path class="st1" d="M134.5,5.3l0.6,0.5l3.7,4.8c0.4,0.8,0.4,1.8,0.4,2.8c0,3.2-2.1,6.2-5.1,7.5c-3.6,1.7-8.3,0.9-11.1-1.9
				c-2.5-2.4-3-6.3-1.7-9.4c1.5-3.4,5-5.5,8.7-5.3C131.6,4.4,133.1,4.7,134.5,5.3z M130.6,9.9c-1.4-0.2-2.6,0.4-3.3,1.7
				c-0.6,1-0.7,2.4-0.1,3.4c0.4,0.9,1.3,1.4,2.3,1.5c1.2,0.1,2.3-0.5,3-1.5c0.7-1,0.7-2.5,0.2-3.6C132.3,10.7,131.4,10.1,130.6,9.9z
				"/>
		</g>
	</g>
	<g>
		<polygon class="st2" points="2.2,34.4 2.2,37.4 1.3,37.4 1.3,31 5.9,31 5.9,31.8 2.2,31.8 2.2,33.7 5.7,33.7 5.7,34.4 		"/>
		<polygon class="st2" points="7.8,31 7.8,37.4 6.9,37.4 6.9,31 		"/>
		<polygon class="st2" points="16.1,31 16.1,37.4 15.1,37.4 15.3,32 13,37.4 12.2,37.4 10,32.1 10.1,37.4 9.2,37.4 9.2,31 10.4,31 
			12.6,36.3 14.9,31 		"/>
		<polygon class="st1" points="81.8,31 82.8,31 80.6,37.4 79.7,37.4 77.8,32.1 75.9,37.4 74.9,37.4 72.8,31 73.8,31 75.5,36.3 
			77.3,31 78.2,31 80.1,36.3 		"/>
		<path class="st1" d="M86.4,31.6c-1.8,0-2.6,1.2-2.6,2.7c0,1.4,0.7,2.7,2.6,2.7c1.9,0,2.6-1.4,2.6-2.8C89,32.6,88.1,31.6,86.4,31.6
			L86.4,31.6z M86.4,37.6c-2.2,0-3.6-1.4-3.6-3.4c0-2.4,1.8-3.4,3.6-3.4c2,0,3.6,1.2,3.6,3.3C90.1,36.1,88.8,37.6,86.4,37.6
			L86.4,37.6z"/>
		<path class="st1" d="M92,34H94c0.3,0,0.6,0,0.9,0c0.7-0.1,0.9-0.6,0.9-1.1c0-0.2,0-0.6-0.4-0.9c-0.4-0.3-0.8-0.3-1.4-0.3h-1.8
			L92,34L92,34z M92,34.7v2.7h-0.9V31h2.7c1,0,1.6,0,2.1,0.4c0.5,0.4,0.7,0.9,0.7,1.5c0,1.5-1.4,1.7-1.7,1.8l2,2.8h-1.1l-2-2.7
			L92,34.7L92,34.7z"/>
		<polygon class="st1" points="98.7,36.7 102.2,36.7 102.2,37.4 97.7,37.4 97.7,31 98.7,31 		"/>
		<path class="st1" d="M103.6,31.8v5h1.3c0.6,0,1.1,0,1.6-0.3c0.5-0.2,1.1-0.8,1.1-2.2c0-1.1-0.4-2-1.5-2.4
			c-0.4-0.1-0.8-0.1-1.3-0.1H103.6L103.6,31.8z M102.6,31h2.3c1,0,1.9,0,2.8,0.8c0.9,0.8,0.9,2,0.9,2.4c0,0.4,0,1.7-1,2.5
			c-0.8,0.7-1.8,0.7-2.5,0.7h-2.5V31L102.6,31z"/>
		<path class="st1" d="M118.4,35.1c-0.3,1.2-1.4,2.5-3.6,2.5c-2.4,0-3.6-1.6-3.6-3.4c0-1.8,1.2-3.4,3.7-3.4c2.5,0,3.1,1.5,3.3,2
			l-1,0.2c-0.1-0.2-0.2-0.4-0.4-0.7c-0.4-0.4-1-0.7-1.9-0.7c-0.7,0-1.5,0.3-2,0.8c-0.5,0.5-0.6,1.2-0.6,1.8c0,1.6,0.9,2.7,2.6,2.7
			c1.1,0,2.1-0.5,2.4-1.9L118.4,35.1L118.4,35.1z"/>
		<polygon class="st1" points="123.9,34.5 120,34.5 120,37.4 119,37.4 119,31 120,31 120,33.7 123.9,33.7 123.9,31 124.9,31 
			124.9,37.4 123.9,37.4 		"/>
		<path class="st1" d="M129.6,34.8l-1.1-2.7l-1.1,2.7H129.6L129.6,34.8z M129.9,35.5h-2.8l-0.8,2h-1l2.8-6.4h1l2.6,6.4h-1
			L129.9,35.5L129.9,35.5z"/>
		<polygon class="st1" points="138.9,31 138.9,37.4 137.9,37.4 138.1,32 135.8,37.4 135,37.4 132.8,32.1 132.9,37.4 132,37.4 
			132,31 133.2,31 135.4,36.3 137.7,31 		"/>
		<path class="st1" d="M141.2,34h2c0.6,0,0.9,0,1.3-0.3c0.3-0.2,0.4-0.5,0.4-0.9c0-0.2,0-0.6-0.4-0.8c-0.3-0.2-0.7-0.3-1-0.3h-2.2
			V34L141.2,34z M141.2,34.7v2.7h-0.9V31h3.1c0.4,0,0.7,0,1.1,0.1c0.8,0.3,1.2,1,1.2,1.7c0,0.7-0.4,1.5-1.3,1.8
			c-0.4,0.1-0.7,0.1-1.1,0.1L141.2,34.7L141.2,34.7z"/>
		<polygon class="st1" points="147.2,31 147.2,37.4 146.3,37.4 146.3,31 		"/>
		<path class="st1" d="M151.8,31.6c-1.8,0-2.6,1.2-2.6,2.7c0,1.4,0.7,2.7,2.6,2.7c1.9,0,2.6-1.4,2.6-2.8
			C154.4,32.6,153.4,31.6,151.8,31.6L151.8,31.6z M151.8,37.6c-2.2,0-3.6-1.4-3.6-3.4c0-2.4,1.8-3.4,3.6-3.4c2,0,3.6,1.2,3.6,3.3
			C155.4,36.1,154.1,37.6,151.8,37.6L151.8,37.6z"/>
		<polygon class="st1" points="162.1,31 162.1,37.4 161.2,37.4 157.3,32.2 157.3,37.4 156.4,37.4 156.4,31 157.3,31 161.2,36.2 
			161.2,31 		"/>
		<path class="st1" d="M165.9,34.5c-1.1-0.2-2.6-0.5-2.6-1.8c0-0.7,0.4-1.1,0.7-1.2c0.7-0.5,1.4-0.5,1.9-0.5c0.5,0,1.3,0,1.9,0.5
			c0.7,0.5,0.9,1.1,0.9,1.5l-1,0c0-0.2,0-0.7-0.6-1.1c-0.4-0.2-0.8-0.3-1.3-0.3c-0.9,0-1.6,0.3-1.6,1c0,0.7,0.8,0.9,1.4,1l0.8,0.2
			c0.6,0.1,0.8,0.2,1.1,0.3c1.1,0.4,1.3,1.2,1.3,1.6c0,0.6-0.3,1.2-0.9,1.5c-0.7,0.4-1.5,0.4-2,0.4c-0.7,0-2.9-0.1-3.1-2.2l1.1-0.1
			c0,0.3,0,0.8,0.6,1.2c0.4,0.3,1,0.4,1.5,0.4c1,0,1.8-0.4,1.8-1.3c0-0.7-0.7-1-1.4-1.1L165.9,34.5L165.9,34.5z"/>
		<polygon class="st1" points="174.8,34.5 170.9,34.5 170.9,37.4 169.9,37.4 169.9,31 170.9,31 170.9,33.7 174.8,33.7 174.8,31 
			175.8,31 175.8,37.4 174.8,37.4 		"/>
		<polygon class="st1" points="178.1,31 178.1,37.4 177.2,37.4 177.2,31 		"/>
		<path class="st1" d="M180.4,34h2c0.6,0,0.9,0,1.3-0.3c0.3-0.2,0.4-0.5,0.4-0.9c0-0.2,0-0.6-0.4-0.8c-0.3-0.2-0.7-0.3-1-0.3h-2.2
			V34L180.4,34z M180.4,34.7v2.7h-0.9V31h3.1c0.4,0,0.8,0,1.1,0.1c0.8,0.3,1.2,1,1.2,1.7c0,0.7-0.4,1.5-1.3,1.8
			c-0.4,0.1-0.7,0.1-1.1,0.1L180.4,34.7L180.4,34.7z"/>
		<path class="st2" d="M21.9,34.5c-1.1-0.2-2.6-0.5-2.6-1.8c0-0.7,0.4-1.1,0.7-1.3c0.7-0.5,1.4-0.6,1.9-0.6c0.5,0,1.3,0,2,0.5
			c0.7,0.5,0.9,1.1,0.9,1.5l-1,0c0-0.2,0-0.7-0.6-1.1c-0.4-0.2-0.8-0.3-1.3-0.3c-0.9,0-1.7,0.3-1.7,1c0,0.7,0.8,0.9,1.4,1l0.8,0.2
			c0.6,0.1,0.9,0.2,1.1,0.3c1.1,0.4,1.3,1.2,1.3,1.6c0,0.6-0.3,1.2-0.9,1.6c-0.7,0.4-1.5,0.4-2,0.4c-0.7,0-2.9-0.1-3.1-2.2l1.1-0.1
			c0,0.3,0,0.8,0.6,1.2c0.4,0.3,1,0.4,1.5,0.4c1.1,0,1.8-0.4,1.8-1.3c0-0.7-0.7-1-1.4-1.1L21.9,34.5L21.9,34.5z"/>
		<path class="st2" d="M31.1,31v4.1c0,0.3,0,0.6-0.1,0.8c-0.2,0.8-1,1.7-2.7,1.7c-0.5,0-1.5-0.1-2.2-0.9c-0.5-0.6-0.5-1.1-0.5-1.8
			v-4h1v3.9c0,0.6,0,1.1,0.4,1.5c0.4,0.5,1.1,0.5,1.4,0.5c0.9,0,1.5-0.4,1.8-1.1c0.1-0.3,0.1-0.6,0.1-1V31L31.1,31L31.1,31z"/>
		<path class="st2" d="M32.8,34h2c0.6,0,0.9,0,1.3-0.3c0.3-0.2,0.4-0.5,0.4-0.9c0-0.2,0-0.6-0.4-0.8c-0.3-0.2-0.7-0.3-1-0.3h-2.2V34
			L32.8,34z M32.8,34.7v2.7h-0.9V31H35c0.4,0,0.8,0,1.1,0.1c0.9,0.3,1.2,1,1.2,1.7c0,0.7-0.4,1.5-1.4,1.8c-0.4,0.1-0.7,0.1-1.2,0.1
			L32.8,34.7L32.8,34.7z"/>
		<polygon class="st2" points="39.1,34.5 39.1,36.7 43.3,36.7 43.3,37.5 38.1,37.5 38.1,31 43.1,31 43.1,31.8 39.1,31.8 39.1,33.7 
			42.6,33.7 42.6,34.5 		"/>
		<path class="st2" d="M44.9,34h1.9c0.3,0,0.6,0,0.9,0c0.7-0.1,0.9-0.6,0.9-1.1c0-0.2,0-0.6-0.4-0.9c-0.4-0.3-0.9-0.3-1.4-0.3h-1.9
			V34L44.9,34z M44.9,34.7v2.8h-1V31h2.7c1,0,1.6,0,2.2,0.4c0.5,0.4,0.7,0.9,0.7,1.5c0,1.5-1.4,1.7-1.7,1.8l2.1,2.8h-1.1l-2-2.8
			H44.9L44.9,34.7z"/>
		<path class="st2" d="M51.4,34.4v2.2h2.1c0.5,0,0.7,0,0.9,0c0.6-0.1,0.8-0.5,0.8-1.1c0-0.7-0.6-1-0.7-1.1c-0.3-0.1-0.5-0.1-1.4-0.1
			L51.4,34.4L51.4,34.4z M51.4,31.8v2h1.5c1.1,0,1.6,0,1.9-0.4c0.1-0.2,0.2-0.4,0.2-0.6c0-0.9-1-1-1.4-1H51.4L51.4,31.8z M50.4,31h3
			c0.4,0,0.7,0,1,0c0.7,0.1,1.6,0.6,1.6,1.6c0,0.8-0.6,1.3-1.1,1.4c0.3,0.1,1.4,0.4,1.4,1.6c0,0.3,0,1-0.8,1.4
			c-0.6,0.4-1.1,0.4-2.1,0.4h-2.8L50.4,31L50.4,31z"/>
		<polygon class="st2" points="58,31 58,37.5 57,37.5 57,31 		"/>
		<polygon class="st2" points="61,34.3 60,35.2 60,37.5 59,37.5 59,31 60,31 60,34.2 63.4,31 64.6,31 61.7,33.7 64.7,37.5 
			63.6,37.5 		"/>
		<polygon class="st2" points="65.9,34.5 65.9,36.7 70.1,36.7 70.1,37.5 65,37.5 65,31 70,31 70,31.8 65.9,31.8 65.9,33.7 
			69.4,33.7 69.4,34.5 		"/>
	</g>
	<g>
		<g>
			<polygon class="st2" points="81,25.5 89.1,25.5 78.8,13 89.1,0.4 81,0.4 70.7,13 			"/>
		</g>
		<g>
			<path class="st1" d="M75.5,0.7H75v1.1h-0.3V0.7h-0.4V0.4h1.2V0.7z"/>
			<path class="st1" d="M77.1,0.4v1.3h-0.3l0-1.1l-0.4,1.1h-0.3l-0.4-1.1l0,1.1h-0.3V0.4H76l0.3,1l0.3-1H77.1z"/>
		</g>
		<g>
			<g>
				<g>
					<path class="st1" d="M13,10.1C9.4,9.3,8.2,8.8,8.2,7.4V7.3c0-0.9,0.8-1.9,3-1.9c2.4,0,5.3,0.9,7.7,2.4L22,3.2
						C19.1,1.1,15.6,0,11.3,0C5.3,0,1.2,3.2,1.2,7.9V8c0,5.2,4.5,6.6,9.9,7.8c3.6,0.8,4.7,1.4,4.7,2.7v0.1c0,0.6-0.3,2.1-3.4,2.1
						s-6-1-8.7-3L0,22c3.2,2.6,7.5,4,12.2,4c6.5,0,10.6-3.1,10.6-8.1v-0.1C22.8,13.1,18.9,11.4,13,10.1z M72.6,0.4h-8.1l-9.4,11.5
						l-0.3,0.3V0.4h-6.7v25.1h6.7V13.7l9.7,11.8h8.1L62.3,13L72.6,0.4z M42.1,13.3L41.2,13l0.9-0.3c0.2,0,4.1-1.3,4.1-6V6.6
						c0-1.6-0.6-2.9-1.6-3.9c-1.6-1.5-3.9-2.2-7.1-2.2H24v25.1h13.6c6,0,9.4-2.3,9.4-6.8C46.9,14.1,42.2,13.3,42.1,13.3z M30.7,5.6
						h5.1c3.2,0,3.7,1.5,3.7,2.5v0.1c0,1.1-0.7,2.5-3.8,2.5h-5L30.7,5.6L30.7,5.6z M40.3,17.8c0,1.7-1.4,2.6-3.9,2.6h-5.8v-5.3h5.7
						C39.9,15.1,40.3,16.9,40.3,17.8L40.3,17.8z"/>
				</g>
			</g>
		</g>
	</g>
</g>
</svg>
